<svg width="32" height="32" viewBox="0 0 32 32" fill="none" xmlns="http://www.w3.org/2000/svg">
<g clip-path="url(#clip0_1_80)">
<path d="M5.85323 18.5534C6.67916 18.7586 7.28771 19.4654 7.36826 20.3123L7.8284 25.1421L8.75971 25.6894C11.0312 26.9616 13.4703 27.6088 16.0005 27.6088C18.5307 27.6088 20.9699 26.9611 23.2513 25.6839L24.1754 25.1095L24.6323 20.3123C24.7128 19.4659 25.3219 18.7592 26.1473 18.5534C29.6232 17.6883 32.0303 14.5776 32 10.9898C31.9669 7.15475 29.0659 3.88965 25.2507 3.39531C24.2168 3.26234 23.1696 3.34289 22.1572 3.6342C20.699 1.71089 18.427 0.574341 16 0.574341C13.573 0.574341 11.301 1.71089 9.84274 3.6342C8.82978 3.34344 7.78316 3.26179 6.74868 3.39531C2.93406 3.88965 0.0330899 7.15475 0.000538143 10.9898C-0.0303584 14.5776 2.37681 17.6883 5.85323 18.5534ZM14.8965 25.4019C14.8965 25.707 14.6494 25.9536 14.3448 25.9536C14.0403 25.9536 13.7931 25.707 13.7931 25.4019V20.9881C13.7931 20.683 14.0403 20.4364 14.3448 20.4364C14.6494 20.4364 14.8965 20.683 14.8965 20.9881V25.4019ZM18.2069 25.4019C18.2069 25.707 17.9597 25.9536 17.6552 25.9536C17.3506 25.9536 17.1034 25.707 17.1034 25.4019V20.9881C17.1034 20.683 17.3506 20.4364 17.6552 20.4364C17.9597 20.4364 18.2069 20.683 18.2069 20.9881V25.4019ZM20.9699 19.8163C21.0074 19.5134 21.2861 19.3026 21.5856 19.3374C21.888 19.3749 22.1026 19.6508 22.0645 19.9531L21.5128 24.3669C21.4781 24.6461 21.2403 24.8502 20.9661 24.8502C20.9429 24.8502 20.9203 24.8485 20.8971 24.8458C20.5947 24.8083 20.3801 24.5324 20.4182 24.2301L20.9699 19.8163ZM12.9043 3.99944C13.9222 3.21489 16.5208 2.20027 19.0747 3.98455C19.3247 4.15834 19.3854 4.50262 19.211 4.75255C19.104 4.90593 18.9324 4.98868 18.7581 4.98868C18.6488 4.98868 18.539 4.95613 18.4425 4.88882C15.9078 3.11834 13.6011 4.85517 13.5785 4.87393C13.3374 5.05875 12.9909 5.01517 12.8044 4.77406C12.6185 4.53241 12.6632 4.18593 12.9043 3.99944ZM10.4143 19.3374C10.7134 19.3026 10.992 19.5134 11.0301 19.8163L11.5818 24.2301C11.6193 24.5324 11.4052 24.8083 11.1029 24.8458C11.0797 24.8485 11.0565 24.8502 11.0339 24.8502C10.7597 24.8502 10.5219 24.6461 10.4872 24.3669L9.93543 19.9531C9.89736 19.6508 10.112 19.3749 10.4143 19.3374ZM3.32302 9.83558C3.3313 9.79751 4.22785 6.05241 8.83309 6.09158C9.13764 6.09489 9.38205 6.34482 9.37874 6.64937C9.37543 6.95393 9.11612 7.17462 8.82095 7.19503C5.06812 7.13158 4.40661 10.0425 4.39999 10.0717C4.34371 10.3299 4.1153 10.5054 3.8615 10.5054C3.82233 10.5054 3.78261 10.501 3.74288 10.4927C3.44661 10.427 3.25792 10.133 3.32302 9.83558Z" fill="#DB5A2F"/>
<path d="M23.8113 26.6334C21.3418 28.0171 18.7206 28.7123 16 28.7123C13.2795 28.7123 10.6582 28.0171 8.21021 26.6461L7.95752 26.4977L8.09545 27.9443C8.15504 28.5699 8.6058 29.168 9.43504 29.7219C9.50511 29.7688 9.57573 29.8135 9.64635 29.8571C9.78262 29.9399 9.91338 30.0138 10.0326 30.0772C10.3316 30.2356 10.5468 30.3244 10.5468 30.3244C12.2825 31.0549 14.1175 31.4257 16.0006 31.4257C17.8836 31.4257 19.7186 31.0549 21.451 30.3255C21.451 30.3255 21.6679 30.2367 21.9697 30.0767C22.0872 30.0138 22.2185 29.9399 22.3564 29.856C22.4254 29.8135 22.4955 29.7688 22.5655 29.7219C23.3948 29.168 23.8455 28.5699 23.9051 27.9443L24.0436 26.4899L23.8113 26.6334Z" fill="#DB5A2F"/>
</g>
<defs>
<clipPath id="clip0_1_80">
<rect width="32" height="32" fill="white"/>
</clipPath>
</defs>
</svg>
