<svg width="20" height="20" viewBox="0 0 20 20" fill="none" xmlns="http://www.w3.org/2000/svg">
<path d="M14.6166 7.55001C13.1416 7.55001 11.9416 6.35001 11.9416 4.87501C11.9416 3.40001 13.1416 2.20001 14.6166 2.20001C16.0916 2.20001 17.2916 3.40001 17.2916 4.87501C17.2916 6.35001 16.0916 7.55001 14.6166 7.55001ZM14.6166 3.44168C13.8333 3.44168 13.1916 4.08335 13.1916 4.86668C13.1916 5.65001 13.8333 6.29168 14.6166 6.29168C15.4 6.29168 16.0416 5.65001 16.0416 4.86668C16.0416 4.08335 15.4 3.44168 14.6166 3.44168ZM5.38331 7.55001C3.90831 7.55001 2.70831 6.35001 2.70831 4.87501C2.70831 3.40001 3.90831 2.20001 5.38331 2.20001C6.85831 2.20001 8.05831 3.40001 8.05831 4.87501C8.05831 6.35001 6.85831 7.55001 5.38331 7.55001ZM5.38331 3.44168C4.59998 3.44168 3.95831 4.08335 3.95831 4.86668C3.95831 5.65001 4.59998 6.29168 5.38331 6.29168C6.16665 6.29168 6.80831 5.65001 6.80831 4.86668C6.80831 4.08335 6.17498 3.44168 5.38331 3.44168ZM14.6166 17.8083C13.1416 17.8083 11.9416 16.6083 11.9416 15.1333C11.9416 13.6583 13.1416 12.4583 14.6166 12.4583C16.0916 12.4583 17.2916 13.6583 17.2916 15.1333C17.2916 16.6083 16.0916 17.8083 14.6166 17.8083ZM14.6166 13.7C13.8333 13.7 13.1916 14.3417 13.1916 15.125C13.1916 15.9083 13.8333 16.55 14.6166 16.55C15.4 16.55 16.0416 15.9083 16.0416 15.125C16.0416 14.3417 15.4 13.7 14.6166 13.7ZM5.38331 17.8083C3.90831 17.8083 2.70831 16.6083 2.70831 15.1333C2.70831 13.6583 3.90831 12.4583 5.38331 12.4583C6.85831 12.4583 8.05831 13.6583 8.05831 15.1333C8.05831 16.6083 6.85831 17.8083 5.38331 17.8083ZM5.38331 13.7C4.59998 13.7 3.95831 14.3417 3.95831 15.125C3.95831 15.9083 4.59998 16.55 5.38331 16.55C6.16665 16.55 6.80831 15.9083 6.80831 15.125C6.80831 14.3417 6.17498 13.7 5.38331 13.7Z" fill="white"/>
</svg>
